# xmcd CD database file
#
# Track frame offsets:
#	150
#	14442
#	25532
#	33641
#	43315
#	56577
#	67324
#	75542
#	88583
#	99512
#	112172
#	124462
#	137051
#	150170
#	160918
#	170339
#	182152
#	193583
#	203729
#	215305
#
# Disc length: 3042 seconds
#
# Revision: 0
# Processed by: cddbd v1.4PL0 Copyright (c) Steve Scherf et al.
# Submitted via: CDex 1.50
#
DISCID=170be014
DTITLE=Moe Bandy - Hank Williams, You Wrote My Life - Cowboys Ain't Supposed To Cry
DYEAR=1900
DGENRE=Country
TTITLE0=Hank Williams, You Wrote My Life
TTITLE1=I'm The Honky Tonk On Loser's Avenue
TTITLE2=Ring Around Rosie's Finger
TTITLE3=The Lady's Got Pride
TTITLE4=You've Got A Lovin' Comin
TTITLE5=The Biggest Airport In The World
TTITLE6=Hello Mary
TTITLE7=The Hard Times
TTITLE8=I Think I've Got A Love On For You
TTITLE9=I'm Not As Strong As I Used To Be
TTITLE10=Cowboys Ain't Supposed To Cry
TTITLE11=She Finally Rocked You Out Of Her Mind
TTITLE12=Up To Now I've Wanted Everything But You
TTITLE13=Misery Loves Company
TTITLE14=Why Don't You Love Me
TTITLE15=She Just Loved The Cheatin' Out Of Me
TTITLE16=No Deal
TTITLE17=All I Can Handle At Home
TTITLE18=Till I Stop Needing You
TTITLE19=I Could Never Be Ashamed Of You
EXTD=
EXTT0=
EXTT1=
EXTT2=
EXTT3=
EXTT4=
EXTT5=
EXTT6=
EXTT7=
EXTT8=
EXTT9=
EXTT10=
EXTT11=
EXTT12=
EXTT13=
EXTT14=
EXTT15=
EXTT16=
EXTT17=
EXTT18=
EXTT19=
PLAYORDER=
